<svg width="987" height="640" viewBox="0 0 987 640" fill="none" xmlns="http://www.w3.org/2000/svg">
<g clip-path="url(#clip0_1551_1084)">
<path d="M286.05 65.85C230.85 78.65 175.95 94.35 120.75 107.15C83.8501 119.85 24.3501 121.95 9.95007 164.45C1.15006 201.65 53.0501 218.55 44.6501 267.75C43.8501 291.95 25.05 312.05 23.05 336.35C12.55 395.05 49.55 452.35 100.05 480.05C153.15 507.95 215.25 512.65 271.95 530.75C387.75 560.55 504.15 590.45 619.45 620.95C638.55 625.75 658.35 634.15 677.65 630.35C718.35 622.55 739.85 579.15 739.65 541.15C746.75 476.15 710.25 412.85 656.05 379.65C609.05 351.25 563.15 320.85 518.95 289.45C471.65 258.65 415.15 222.75 422.25 158.95C428.55 104.55 477.65 74.65 527.45 67.85C551.55 65.25 580.75 53.95 600.65 71.65C630.45 101.65 579.05 132.85 592.15 165.55C598.75 194.55 633.65 200.05 656.05 186.15C682.35 169.15 700.35 141.45 727.45 126.05C750.15 113.25 774.45 98.25 800.75 98.85C820.65 99.05 834.65 117.95 827.95 136.45C819.95 152.75 803.55 162.75 788.55 171.15C737.15 204.25 719.25 275.55 757.55 325.15C785.45 363.15 832.25 380.05 869.35 405.95C884.35 413.35 896.95 425.35 913.45 426.55C956.75 427.75 970.45 375.85 976.35 341.95C986.25 253.35 946.95 153.75 882.35 94.05C832.95 50.65 765.45 43.85 704.85 30.15C639.45 17.95 573.25 4.14999 507.65 11.35C469.55 15.75 432.75 26.85 396.85 35.75C359.45 46.35 322.25 53.65 286.05 65.85Z" stroke="white" stroke-width="7.513" stroke-miterlimit="3.7565"/>
<path d="M286.05 65.8501C228.35 79.3501 170.95 95.5501 113.25 109.05C80.9498 119.85 40.7499 122.35 17.4499 149.45C-12.8501 190.05 46.3499 213.75 44.6499 253.65C49.2499 279.05 32.3498 301.65 24.9498 325.05C11.8498 377.05 35.1499 430.65 75.6499 464.05C125.15 501.75 189.05 507.85 247.55 524.15C333.15 546.55 419.25 568.65 504.85 590.85" stroke="white" stroke-width="1.8783" stroke-miterlimit="3.7565"/>
<path d="M504.85 590.85C543.05 600.05 581.25 611.55 619.45 620.95C644.35 628.25 672.15 637.95 696.45 623.75C734.75 602.25 743.85 553.45 739.65 512.95C736.25 470.45 716.45 429.25 684.25 401.15C660.75 379.95 631.25 365.65 605.35 347.65C575.85 329.75 547.25 309.05 518.95 289.45C490.25 269.85 459.05 251.25 438.15 222.75C419.65 194.15 415.95 156.35 432.55 126.05C449.75 93.45 485.05 74.15 520.85 69.75C548.85 64.65 591.75 49.85 608.15 81.95C617.15 107.85 591.05 126.85 590.35 151.45C588.15 177.45 612.75 199.25 638.25 192.75C660.55 188.25 676.15 170.45 691.75 155.15C718.35 127.65 753.35 107.85 790.35 98.85C829.15 94.75 843.35 131.25 812.85 155.15C798.25 166.05 782.05 174.65 768.75 187.05C748.75 208.05 735.75 236.55 736.85 265.95C736.95 322.25 786.35 358.75 831.75 382.45" stroke="white" stroke-width="1.8783" stroke-miterlimit="3.7565"/>
<path d="M831.65 382.35C846.45 392.25 862.45 401.35 877.65 410.55C888.75 417.25 899.85 425.45 913.35 426.55C952.25 428.25 968.55 383.35 974.35 351.45C991.35 260.95 943.95 139.85 870.15 84.6499C832.15 55.0499 783.35 47.7499 737.75 36.7499C680.95 25.6499 623.75 13.5499 565.95 9.54985C471.65 6.14985 380.65 42.6498 289.85 64.0498" stroke="white" stroke-width="1.8783" stroke-miterlimit="3.7565"/>
</g>
<defs>
<clipPath id="clip0_1551_1084">
<rect width="639.2" height="986.7" fill="white" transform="translate(986.95 0.75) rotate(90)"/>
</clipPath>
</defs>
</svg>
